<svg version="1.2" xmlns="http://www.w3.org/2000/svg" viewBox="0 0 39 32" width="39" height="32"><style>.a{opacity:.7}</style><path fill-rule="evenodd" class="a" d="m37.8 30.4c-0.9 1.4-2.9 1.7-4.3 0.7l-12.7-8.8c-0.9-0.6-1.4-1.6-1.3-2.6-1.7 1.7-3.8 2.9-6.2 3.4-3 0.5-6-0.1-8.4-1.8-2.5-1.8-4.2-4.3-4.7-7.3-0.6-3 0.1-5.9 1.8-8.4 3.5-5.1 10.6-6.4 15.7-2.9 4.6 3.2 6.1 9.3 3.7 14.2 0.9-0.4 2-0.3 2.9 0.3l12.8 8.9c1.4 0.9 1.7 2.9 0.7 4.3zm-18.8-19.8c-0.4-2.1-1.5-3.9-3.3-5.1-3.5-2.4-8.4-1.5-10.9 2-2.5 3.6-1.6 8.5 2 10.9 3.5 2.5 8.5 1.6 10.9-1.9 1.2-1.8 1.7-3.8 1.3-5.9z"/></svg>